<svg version="1.1" xmlns="http://www.w3.org/2000/svg" xmlns:xlink="http://www.w3.org/1999/xlink" width="16.15781" height="13.61834" viewBox="0,0,16.15781,13.61834"><g transform="translate(-231.85903,-173.81498)"><g data-paper-data="{&quot;isPaintingLayer&quot;:true}" fill-rule="nonzero" stroke="#000000" stroke-width="1" stroke-linecap="round" stroke-linejoin="miter" stroke-miterlimit="10" stroke-dasharray="" stroke-dashoffset="0" style="mix-blend-mode: normal"><path d="M232.47297,174.50395h2.05906l2.00758,2.05906l-1.95611,1.95611l-2.21348,-1.5443z" fill="#ffffff"/><path d="M234.5835,174.45247l10.03791,0.05148l-0.20591,3.03711l-7.97885,-0.10296z" fill="#2c2c2c"/><path d="M244.56993,174.34952l2.93416,0.20591l-0.05147,1.90463l-3.14007,3.19154z" fill="#2c2c2c"/><path d="M244.26108,184.54185l0.20591,1.02953l0.97805,0.92657l1.18396,-1.13248v-3.91221l-2.31644,-1.85315z" fill="#2c2c2c"/><path d="M237.41471,180.57817l0.05148,3.86073l7.15523,0.05148l-0.10296,-3.91221l-3.08858,-0.05148l-0.82362,-1.081l-1.59577,1.081z" fill="#fad1d1"/><path d="M237.51766,184.4389l-1.70645,2.16201l-0.91885,-1.28691v-3.86073l0.96261,-0.8751l1.57518,-0.05148z" fill="#2c2c2c"/><path d="M234.42478,184.07856l-1.95181,-1.33839v-3.34597l3.17867,0.05576l0.1673,1.28262l-1.17109,0.94802z" fill="#ffffff"/><path d="M233.24512,179.44568l0.10295,-1.23544l2.21349,-0.66919v1.80167z" fill="#000000"/><path d="M235.61303,177.28367l-0.10296,3.24301h3.91221l1.13249,-1.081l0.97805,1.081l2.83121,-0.10295l0.05148,-2.93416z" fill="#ffffff"/><path d="M242.4594,182.58575v-1.85315" fill="none"/><path d="M239.37081,182.53427v-1.85315" fill="none"/></g></g></svg>